<svg width="17" height="16" viewBox="0 0 17 16" fill="none" xmlns="http://www.w3.org/2000/svg">
<g clip-path="url(#clip0_127_77)">
<path d="M16.9412 0.284051V15.6898C16.9412 15.84 16.8203 15.9641 16.6666 15.9641H0.15047C8.53068e-05 15.9641 -0.124146 15.8432 -0.124146 15.6898V0.284051C-0.124146 0.133847 -0.00318392 0.00976562 0.15047 0.00976562H16.6666C16.817 0.00976562 16.9412 0.133847 16.9412 0.284051Z" fill="#3D3935"/>
<path d="M4.82547 1.52526V0.0134277H0.15047C8.53068e-05 0.0134277 -0.124146 0.134244 -0.124146 0.287714V15.6934C-0.124146 15.8436 -0.00318392 15.9677 0.15047 15.9677H16.6666C16.817 15.9677 16.9412 15.8469 16.9412 15.6934V10.4265H13.7374C8.81393 10.4265 4.82547 6.43955 4.82547 1.52526Z" fill="black"/>
<path d="M-0.12085 3.27832H16.9413V4.51914H-0.12085V3.27832Z" fill="#FFEB33"/>
<path d="M5.33877 4.5224H-0.12085V3.27832H4.99877C5.0805 3.70608 5.19819 4.12077 5.33877 4.5224Z" fill="#F9DF21"/>
<path d="M14.2441 5.60327H15.6433C15.7937 5.60327 15.9179 5.72409 15.9179 5.87756V6.57307C15.9179 6.72327 15.797 6.84735 15.6433 6.84735H14.2441C14.0937 6.84735 13.9695 6.72654 13.9695 6.57307V5.87756C13.9695 5.72735 14.0904 5.60327 14.2441 5.60327Z" fill="#FFEB33"/>
<path d="M2.72335 14.4556V15.9641H0.15047C8.53068e-05 15.9641 -0.124146 15.8401 -0.124146 15.6899V14.4556H2.72335Z" fill="#3D3935"/>
<path d="M2.72339 14.4556H5.56435V15.9641H2.72339V14.4556Z" fill="#494643"/>
<path d="M5.56433 14.4556H8.40856V15.9641H5.56433V14.4556Z" fill="#3D3935"/>
<path d="M8.40857 14.4556H11.2528V15.9641H8.40857V14.4556Z" fill="#494643"/>
<path d="M11.2528 14.4556H14.0938V15.9641H11.2528V14.4556Z" fill="#3D3935"/>
<path d="M16.938 14.4556V15.6899C16.938 15.8401 16.8138 15.9642 16.6634 15.9642H14.0905V14.4556H16.938ZM-0.12085 12.947H1.30127V14.4556H-0.12085V12.947Z" fill="#494643"/>
<path d="M1.30127 12.947H4.1455V14.4556H1.30127V12.947Z" fill="#3D3935"/>
<path d="M4.14551 12.947H6.98647V14.4556H4.14551V12.947Z" fill="#494643"/>
<path d="M6.98645 12.947H9.83068V14.4556H6.98645V12.947Z" fill="#3D3935"/>
<path d="M9.83069 12.947H12.6749V14.4556H9.83069V12.947Z" fill="#494643"/>
<path d="M12.6749 12.947H15.5159V14.4556H12.6749V12.947Z" fill="#3D3935"/>
<path d="M15.5159 12.947H16.938V14.4556H15.5159V12.947Z" fill="#494643"/>
<path d="M12.9462 6.22368C12.9462 6.56654 12.7566 6.84409 12.5244 6.84409C12.2891 6.84409 12.1027 6.56654 12.1027 6.22368C12.1027 5.88082 12.2923 5.60327 12.5244 5.60327C12.7566 5.60327 12.9462 5.88082 12.9462 6.22368ZM9.40233 5.60327H10.8016C10.9519 5.60327 11.0762 5.72409 11.0762 5.87756V6.57307C11.0762 6.72327 10.9552 6.84735 10.8016 6.84735H9.40233C9.25195 6.84735 9.12772 6.72654 9.12772 6.57307V5.87756C9.13099 5.72735 9.25195 5.60327 9.40233 5.60327ZM8.10445 6.22368C8.10445 6.56654 7.91483 6.84409 7.68272 6.84409C7.44733 6.84409 7.26099 6.56654 7.26099 6.22368C7.26099 5.88082 7.4506 5.60327 7.68272 5.60327C7.9181 5.60327 8.10445 5.88082 8.10445 6.22368Z" fill="#FFEB33"/>
<path d="M4.56396 5.60327H5.96319C6.11357 5.60327 6.2378 5.72409 6.2378 5.87756V6.57307C6.2378 6.72327 6.11684 6.84735 5.96319 6.84735H4.56396C4.41357 6.84735 4.28934 6.72654 4.28934 6.57307V5.87756C4.28934 5.72735 4.4103 5.60327 4.56396 5.60327ZM-0.12085 5.60327H1.12473C1.27511 5.60327 1.39934 5.72409 1.39934 5.87756V6.57307C1.39934 6.72327 1.27838 6.84735 1.12473 6.84735H-0.12085V5.60327ZM3.26607 6.22368C3.26607 6.56654 3.07646 6.84409 2.84434 6.84409C2.60896 6.84409 2.42261 6.56654 2.42261 6.22368C2.42261 5.88082 2.61223 5.60327 2.84434 5.60327C3.07646 5.60327 3.26607 5.88082 3.26607 6.22368Z" fill="#F9DF21"/>
<path d="M-0.12085 10.488H16.9413V12.9468H-0.12085V10.488Z" fill="#EAEAEA"/>
</g>
<defs>
<clipPath id="clip0_127_77">
<rect width="17" height="16" fill="white"/>
</clipPath>
</defs>
</svg>
