<svg width="16" height="19" viewBox="0 0 16 19" fill="none" xmlns="http://www.w3.org/2000/svg">
<path d="M7.99999 16.3718L3.36923 18.3596C2.66625 18.6602 1.99842 18.6026 1.36574 18.1868C0.733038 17.771 0.416687 17.1862 0.416687 16.4323V2.19236C0.416687 1.60304 0.620854 1.10421 1.02919 0.695874C1.43752 0.287541 1.93635 0.083374 2.52567 0.083374H13.4743C14.0636 0.083374 14.5625 0.287541 14.9708 0.695874C15.3791 1.10421 15.5833 1.60304 15.5833 2.19236V16.4323C15.5833 17.1862 15.2669 17.771 14.6342 18.1868C14.0016 18.6026 13.3337 18.6602 12.6308 18.3596L7.99999 16.3718ZM7.99999 14.4333L13.3285 16.7285C13.4481 16.7809 13.5622 16.7697 13.6707 16.6949C13.7791 16.6201 13.8333 16.5191 13.8333 16.3919V2.19236C13.8333 2.1026 13.7959 2.02032 13.7211 1.94552C13.6463 1.87074 13.5641 1.83335 13.4743 1.83335H2.52567C2.43591 1.83335 2.35364 1.87074 2.27883 1.94552C2.20405 2.02032 2.16666 2.1026 2.16666 2.19236V16.3919C2.16666 16.5191 2.22088 16.6201 2.32932 16.6949C2.43778 16.7697 2.55184 16.7809 2.6715 16.7285L7.99999 14.4333ZM7.99999 1.83335H2.16666H13.8333H7.99999Z" fill="black"/>
</svg>
